<?xml version="1.0" standalone="no"?>
<!DOCTYPE svg PUBLIC "-//W3C//DTD SVG 20010904//EN"
 "http://www.w3.org/TR/2001/REC-SVG-20010904/DTD/svg10.dtd">
<svg version="1.0" xmlns="http://www.w3.org/2000/svg"
 width="844.000000pt" height="844.000000pt" viewBox="0 0 844.000000 844.000000"
 preserveAspectRatio="xMidYMid meet">
<metadata>
Created by potrace 1.14, written by Peter Selinger 2001-2017
</metadata>
<g transform="translate(0.000000,844.000000) scale(0.100000,-0.100000)"
fill="#000000" stroke="none">
<path d="M103 6153 c4 -1953 7 -2418 17 -2418 1 0 3 -22 5 -50 3 -27 9 -88 15
-134 6 -46 14 -103 16 -125 7 -52 12 -81 14 -81 1 0 3 -13 5 -30 3 -30 10 -70
20 -112 3 -13 7 -33 10 -45 3 -13 8 -36 11 -53 3 -16 9 -48 15 -70 5 -22 12
-49 14 -60 3 -11 19 -69 36 -130 17 -60 32 -114 33 -120 1 -5 4 -14 7 -20 3
-5 12 -32 19 -60 8 -27 20 -61 27 -75 7 -14 13 -29 13 -35 0 -5 12 -39 26 -75
94 -233 175 -407 256 -547 26 -46 48 -86 48 -89 0 -3 5 -10 10 -17 6 -7 47
-68 92 -137 71 -109 117 -173 153 -216 6 -7 20 -25 32 -41 12 -15 30 -38 40
-49 10 -12 36 -44 58 -70 54 -65 288 -300 349 -349 27 -22 58 -48 70 -58 11
-10 30 -26 41 -35 102 -86 338 -243 506 -335 25 -13 54 -30 65 -35 144 -81
490 -217 689 -272 170 -47 309 -80 411 -96 20 -3 46 -8 58 -10 11 -2 44 -7 71
-10 28 -3 52 -7 55 -9 5 -3 35 -6 165 -19 12 -1 26 -5 32 -9 6 -4 14 -3 18 3
4 6 11 7 17 4 27 -17 648 -37 648 -21 0 5 5 5 11 2 15 -10 114 -9 129 0 9 6
11 4 5 -5 -5 -8 -4 -11 2 -7 6 4 89 9 184 12 216 7 369 16 497 30 28 3 76 7
105 10 28 3 63 7 77 10 14 2 50 7 80 10 53 6 111 16 285 50 11 3 38 9 60 15
22 6 51 13 65 16 14 2 32 7 40 11 8 3 20 7 26 8 38 9 170 60 176 69 4 6 8 7 8
2 0 -4 11 -1 25 8 13 9 31 16 40 16 8 0 15 5 15 10 0 6 6 10 14 10 7 0 19 7
26 15 7 8 16 13 20 10 5 -3 10 -2 12 2 1 5 23 22 48 38 48 32 70 50 70 58 0 3
-21 13 -47 22 -52 18 -52 18 -205 114 -107 67 -304 210 -353 255 -15 14 -31
26 -34 26 -3 0 -24 17 -47 38 -22 20 -79 72 -126 114 -137 124 -307 298 -418
427 -64 75 -61 72 -100 117 -19 22 -46 55 -60 73 -14 19 -33 43 -44 55 -10 11
-43 55 -74 96 -31 41 -59 77 -62 80 -4 3 -21 28 -40 55 -19 28 -36 52 -40 55
-12 10 -100 141 -100 150 0 4 -4 10 -9 12 -11 4 -121 173 -121 186 0 6 -4 12
-9 14 -8 2 -144 261 -146 278 -1 3 -9 23 -20 45 -10 22 -19 45 -21 50 -1 6
-10 28 -20 50 -10 22 -19 46 -20 53 -1 8 -6 21 -10 30 -4 9 -8 20 -9 25 -2 4
-4 9 -5 12 -1 3 -3 8 -4 13 -1 4 -13 41 -26 82 -13 41 -24 80 -26 85 -1 6 -11
48 -22 95 -21 86 -36 162 -47 235 -3 22 -8 54 -11 70 -15 99 -22 189 -29 378
-2 82 -7 153 -10 158 -4 5 -2 9 4 9 6 0 6 11 1 30 -5 17 -5 32 0 35 5 3 6 15
1 28 -5 12 -5 32 0 45 5 13 5 22 -2 22 -6 0 -6 7 -1 18 9 19 8 755 -2 842 -6
53 -24 174 -33 215 -9 45 -24 111 -27 120 -1 6 -8 30 -15 55 -33 120 -101 291
-169 425 -26 50 -49 92 -52 95 -3 3 -14 21 -24 40 -38 71 -186 287 -232 340
-8 8 -46 53 -86 100 -160 189 -426 438 -653 613 -5 4 -26 21 -45 37 -19 16
-38 30 -43 30 -4 0 -21 14 -39 30 -17 17 -35 30 -40 30 -5 0 -17 7 -25 16 -20
19 -395 267 -477 315 -32 19 -70 41 -85 50 -14 9 -42 25 -61 36 -19 11 -59 34
-88 52 -29 17 -57 31 -62 31 -4 0 -10 3 -12 8 -2 4 -19 15 -38 24 -33 16 -88
46 -217 119 -29 16 -53 26 -53 23 0 -4 -8 0 -17 8 -16 12 -369 191 -383 194
-3 0 -45 20 -95 43 -49 24 -115 55 -145 68 -30 14 -88 41 -129 60 -70 33 -120
55 -131 58 -3 0 -36 16 -75 34 -38 18 -90 41 -115 51 -25 10 -72 30 -105 45
-33 15 -71 32 -85 38 -14 6 -29 13 -33 15 -4 2 -6 -1026 -4 -2285z"/>
<path d="M6427 5914 c-2 -2 -21 -6 -43 -9 -21 -3 -50 -7 -64 -10 -14 -3 -36
-7 -50 -10 -14 -3 -40 -9 -57 -14 -18 -5 -33 -7 -33 -4 0 3 -7 -1 -17 -8 -9
-8 -18 -13 -20 -11 -4 3 -51 -7 -73 -15 -8 -4 -17 -7 -20 -8 -3 -1 -13 -5 -22
-9 -9 -4 -22 -9 -30 -10 -37 -8 -326 -140 -338 -155 -3 -3 -21 -14 -40 -24
-43 -22 -195 -130 -245 -174 -20 -18 -39 -33 -41 -33 -3 0 -45 -42 -95 -92
-98 -101 -192 -220 -251 -320 -21 -35 -42 -68 -48 -75 -5 -7 -10 -14 -10 -17
0 -2 -16 -39 -36 -83 -53 -116 -60 -133 -79 -193 -9 -30 -19 -62 -22 -70 -8
-21 -16 -49 -27 -98 -2 -9 -9 -35 -14 -57 -6 -22 -14 -60 -17 -85 -3 -25 -8
-56 -10 -70 -12 -78 -16 -115 -21 -205 -6 -106 -6 -156 1 -163 2 -2 0 -14 -5
-27 -5 -13 -6 -25 -3 -28 2 -3 7 -36 9 -74 7 -116 13 -162 35 -288 5 -33 14
-76 19 -95 31 -123 66 -242 92 -313 17 -45 33 -92 35 -104 3 -13 9 -23 14 -23
5 0 6 -6 3 -13 -3 -8 2 -20 11 -27 8 -7 15 -18 15 -26 0 -34 151 -322 258
-493 85 -136 265 -388 292 -411 3 -3 13 -14 21 -26 54 -78 261 -306 419 -459
111 -109 127 -124 229 -213 35 -32 82 -74 105 -94 23 -21 44 -38 48 -38 4 0
14 -8 24 -18 16 -16 216 -169 264 -202 12 -8 40 -27 61 -43 21 -15 43 -27 49
-27 5 0 10 -4 10 -9 0 -27 34 -16 79 25 57 52 187 185 257 263 27 30 60 67 74
82 14 15 37 42 52 60 14 19 35 44 45 55 10 12 29 36 43 54 14 18 30 38 35 44
27 28 185 246 185 254 0 6 4 12 9 14 11 4 163 233 226 340 44 74 104 182 124
223 14 28 29 53 34 56 4 3 9 12 11 20 1 8 18 46 39 86 61 120 181 410 192 466
2 9 7 23 12 30 4 6 8 17 10 22 1 6 11 42 23 80 29 96 78 289 85 334 3 20 8 48
10 61 3 14 8 43 11 65 3 22 7 51 10 65 13 73 19 185 19 355 0 207 -9 320 -35
435 -6 25 -12 54 -15 65 -18 89 -71 251 -87 273 -6 6 -7 12 -4 12 4 0 0 10 -8
22 -9 12 -16 30 -16 40 0 10 -5 18 -12 18 -6 0 -9 3 -5 6 3 3 -2 20 -12 37
-18 32 -87 154 -106 185 -15 26 -127 173 -150 197 -118 125 -159 166 -200 200
-27 22 -57 48 -68 59 -63 60 -462 300 -492 296 -3 -1 -18 6 -33 13 -89 47
-277 109 -463 153 -28 7 -157 13 -162 8z"/>
</g>
</svg>
